<svg xmlns="http://www.w3.org/2000/svg" width="1600" height="360" viewBox="0 0 1600 360" fill="none">
    <defs>
      <linearGradient id="bg" x1="0" y1="0" x2="1" y2="1">
        <stop offset="0%" stop-color="#4A246F"/>
        <stop offset="100%" stop-color="#162C58"/>
      </linearGradient>
      <filter id="blur"><feGaussianBlur stdDeviation="18"/></filter>
    </defs>
    <rect width="1600" height="360" rx="28" fill="url(#bg)"/>
    <line x1="0" y1="0" x2="0" y2="360" stroke="white" stroke-opacity="0.05"/>
<line x1="80" y1="0" x2="80" y2="360" stroke="white" stroke-opacity="0.05"/>
<line x1="160" y1="0" x2="160" y2="360" stroke="white" stroke-opacity="0.05"/>
<line x1="240" y1="0" x2="240" y2="360" stroke="white" stroke-opacity="0.05"/>
<line x1="320" y1="0" x2="320" y2="360" stroke="white" stroke-opacity="0.05"/>
<line x1="400" y1="0" x2="400" y2="360" stroke="white" stroke-opacity="0.05"/>
<line x1="480" y1="0" x2="480" y2="360" stroke="white" stroke-opacity="0.05"/>
<line x1="560" y1="0" x2="560" y2="360" stroke="white" stroke-opacity="0.05"/>
<line x1="640" y1="0" x2="640" y2="360" stroke="white" stroke-opacity="0.05"/>
<line x1="720" y1="0" x2="720" y2="360" stroke="white" stroke-opacity="0.05"/>
<line x1="800" y1="0" x2="800" y2="360" stroke="white" stroke-opacity="0.05"/>
<line x1="880" y1="0" x2="880" y2="360" stroke="white" stroke-opacity="0.05"/>
<line x1="960" y1="0" x2="960" y2="360" stroke="white" stroke-opacity="0.05"/>
<line x1="1040" y1="0" x2="1040" y2="360" stroke="white" stroke-opacity="0.05"/>
<line x1="1120" y1="0" x2="1120" y2="360" stroke="white" stroke-opacity="0.05"/>
<line x1="1200" y1="0" x2="1200" y2="360" stroke="white" stroke-opacity="0.05"/>
<line x1="1280" y1="0" x2="1280" y2="360" stroke="white" stroke-opacity="0.05"/>
<line x1="1360" y1="0" x2="1360" y2="360" stroke="white" stroke-opacity="0.05"/>
<line x1="1440" y1="0" x2="1440" y2="360" stroke="white" stroke-opacity="0.05"/>
<line x1="1520" y1="0" x2="1520" y2="360" stroke="white" stroke-opacity="0.05"/>
<line x1="0" y1="0" x2="1600" y2="0" stroke="white" stroke-opacity="0.05"/>
<line x1="0" y1="60" x2="1600" y2="60" stroke="white" stroke-opacity="0.05"/>
<line x1="0" y1="120" x2="1600" y2="120" stroke="white" stroke-opacity="0.05"/>
<line x1="0" y1="180" x2="1600" y2="180" stroke="white" stroke-opacity="0.05"/>
<line x1="0" y1="240" x2="1600" y2="240" stroke="white" stroke-opacity="0.05"/>
<line x1="0" y1="300" x2="1600" y2="300" stroke="white" stroke-opacity="0.05"/>

    <g filter="url(#blur)"><circle cx="1280" cy="110" r="110" fill="white" fill-opacity="0.18"/>
<circle cx="1360" cy="180" r="65" fill="white" fill-opacity="0.22"/>
<circle cx="1180" cy="220" r="44" fill="white" fill-opacity="0.16"/>
</g>
    <g>
      <circle cx="190" cy="120" r="54" stroke="white" stroke-opacity="0.65" stroke-width="2"/>
      <circle cx="250" cy="170" r="20" fill="white" fill-opacity="0.55"/>
      <path d="M165 180 C240 100, 320 160, 380 95" stroke="white" stroke-opacity="0.55" stroke-width="3"/>
      <path d="M1160 92 C1230 170, 1300 112, 1378 188" stroke="white" stroke-opacity="0.35" stroke-width="2"/>
      <path d="M1120 268 C1220 218, 1310 302, 1420 242" stroke="white" stroke-opacity="0.3" stroke-width="2"/>
      <circle cx="1198" cy="92" r="11" fill="white" fill-opacity="0.55"/>
      <circle cx="1376" cy="188" r="11" fill="white" fill-opacity="0.35"/>
      <circle cx="1420" cy="242" r="11" fill="white" fill-opacity="0.28"/>
    </g>
    <text x="90" y="210" font-family="Arial, Helvetica, sans-serif" font-size="58" font-weight="700" fill="white">Vision-Language-Action</text>
    <text x="92" y="254" font-family="Arial, Helvetica, sans-serif" font-size="24" fill="white" fill-opacity="0.9">From multimodal understanding to grounded, executable behavior</text>
    </svg>