<svg xmlns="http://www.w3.org/2000/svg" width="640" height="640" viewBox="0 0 640 640">
  <defs>
    <linearGradient id="bg" x1="0" y1="0" x2="1" y2="1">
      <stop offset="0%" stop-color="#0b1020"/>
      <stop offset="100%" stop-color="#101936"/>
    </linearGradient>
    <linearGradient id="line" x1="0" y1="0" x2="1" y2="1">
      <stop offset="0%" stop-color="#22d3ee"/>
      <stop offset="100%" stop-color="#8b5cf6"/>
    </linearGradient>
    <filter id="glow">
      <feGaussianBlur stdDeviation="7" result="b"/>
      <feMerge><feMergeNode in="b"/><feMergeNode in="SourceGraphic"/></feMerge>
    </filter>
  </defs>
  <rect x="20" y="20" width="600" height="600" rx="140" fill="url(#bg)"/>
  <circle cx="320" cy="320" r="190" fill="none" stroke="url(#line)" stroke-width="8" opacity="0.35"/>
  <circle cx="320" cy="320" r="134" fill="none" stroke="url(#line)" stroke-width="6" opacity="0.30"/>
  <path d="M320 124 L450 218 L400 372 L240 372 L190 218 Z" fill="none" stroke="url(#line)" stroke-width="10"/>
  <path d="M320 188 L384 234 L360 310 L280 310 L256 234 Z" fill="rgba(34,211,238,0.05)" stroke="url(#line)" stroke-width="8"/>
  <circle cx="320" cy="320" r="16" fill="#22d3ee" filter="url(#glow)"/>
  <circle cx="320" cy="124" r="12" fill="#8b5cf6" filter="url(#glow)"/>
  <circle cx="450" cy="218" r="12" fill="#22d3ee" filter="url(#glow)"/>
  <circle cx="400" cy="372" r="11" fill="#7dd3fc" filter="url(#glow)"/>
  <circle cx="240" cy="372" r="11" fill="#7dd3fc" filter="url(#glow)"/>
  <circle cx="190" cy="218" r="12" fill="#a78bfa" filter="url(#glow)"/>
  <text x="320" y="448" text-anchor="middle" font-size="94" font-weight="800" fill="#ffffff" font-family="DejaVu Sans, Arial">AGI‑X</text>
</svg>